<svg width="120" height="32" viewBox="0 0 120 32" fill="none" xmlns="http://www.w3.org/2000/svg"><g><path d="M14.7 25.6L19.2 7.2C19.3 6.7 19.7 6.3 20.2 6.3H23.2C23.7 6.3 24.1 6.7 24.1 7.2C24.1 7.3 24.1 7.4 24.1 7.5L19.6 25.9C19.5 26.4 19.1 26.8 18.6 26.8H15.6C15.1 26.8 14.7 26.4 14.7 25.9C14.7 25.8 14.7 25.7 14.7 25.6ZM27.2 25.6L31.7 7.2C31.8 6.7 32.2 6.3 32.7 6.3H35.7C36.2 6.3 36.6 6.7 36.6 7.2C36.6 7.3 36.6 7.4 36.6 7.5L32.1 25.9C32 26.4 31.6 26.8 31.1 26.8H28.1C27.6 26.8 27.2 26.4 27.2 25.9C27.2 25.8 27.2 25.7 27.2 25.6ZM39.7 25.6L44.2 7.2C44.3 6.7 44.7 6.3 45.2 6.3H48.2C48.7 6.3 49.1 6.7 49.1 7.2C49.1 7.3 49.1 7.4 49.1 7.5L44.6 25.9C44.5 26.4 44.1 26.8 43.6 26.8H40.6C40.1 26.8 39.7 26.4 39.7 25.9C39.7 25.8 39.7 25.7 39.7 25.6ZM53.2 25.6L57.7 7.2C57.8 6.7 58.2 6.3 58.7 6.3H61.7C62.2 6.3 62.6 6.7 62.6 7.2C62.6 7.3 62.6 7.4 62.6 7.5L58.1 25.9C58 26.4 57.6 26.8 57.1 26.8H54.1C53.6 26.8 53.2 26.4 53.2 25.9C53.2 25.8 53.2 25.7 53.2 25.6ZM66.7 25.6L71.2 7.2C71.3 6.7 71.7 6.3 72.2 6.3H75.2C75.7 6.3 76.1 6.7 76.1 7.2C76.1 7.3 76.1 7.4 76.1 7.5L71.6 25.9C71.5 26.4 71.1 26.8 70.6 26.8H67.6C67.1 26.8 66.7 26.4 66.7 25.9C66.7 25.8 66.7 25.7 66.7 25.6ZM80.2 25.6L84.7 7.2C84.8 6.7 85.2 6.3 85.7 6.3H88.7C89.2 6.3 89.6 6.7 89.6 7.2C89.6 7.3 89.6 7.4 89.6 7.5L85.1 25.9C85 26.4 84.6 26.8 84.1 26.8H81.1C80.6 26.8 80.2 26.4 80.2 25.9C80.2 25.8 80.2 25.7 80.2 25.6ZM93.7 25.6L98.2 7.2C98.3 6.7 98.7 6.3 99.2 6.3H102.2C102.7 6.3 103.1 6.7 103.1 7.2C103.1 7.3 103.1 7.4 103.1 7.5L98.6 25.9C98.5 26.4 98.1 26.8 97.6 26.8H94.6C94.1 26.8 93.7 26.4 93.7 25.9C93.7 25.8 93.7 25.7 93.7 25.6Z" fill="#0A2540"/></g></svg>
